<svg width="9" height="14" viewBox="0 0 9 14" fill="none" xmlns="http://www.w3.org/2000/svg">
<path d="M8.84877 3.59864C8.79214 3.31274 8.70734 3.03314 8.59564 2.76394C8.48365 2.49355 8.34519 2.23489 8.18229 1.99173C7.8547 1.50124 7.43391 1.07993 6.94387 0.751698C6.45903 0.42603 5.91455 0.199492 5.34176 0.085222C4.76412 -0.0284073 4.1699 -0.0284073 3.59226 0.085222C3.01947 0.199452 2.47495 0.42599 1.99016 0.751698C1.50027 1.07945 1.07948 1.50024 0.751728 1.99013C0.42606 2.47496 0.199562 3.01944 0.085252 3.59223C-0.0284174 4.16987 -0.0284174 4.76409 0.085252 5.34173C0.199482 5.91452 0.42602 6.45904 0.751728 6.94384C1.1849 7.59145 1.77892 8.11538 2.47559 8.46424C2.89807 8.6804 3.35239 8.82751 3.82136 8.90001C3.91489 8.90846 3.98538 8.9888 3.98157 9.08265V10.3483C3.98157 10.4456 3.90267 10.5245 3.80534 10.5245H1.93729C1.8112 10.5251 1.69036 10.5751 1.60084 10.6639C1.42125 10.846 1.4156 11.1367 1.58803 11.3256L1.59764 11.3336C1.64366 11.3781 1.69813 11.413 1.75785 11.4361C1.81525 11.46 1.87673 11.4725 1.93889 11.473H3.81015C3.85697 11.4728 3.90191 11.4913 3.93511 11.5243C3.96559 11.5574 3.98221 11.601 3.98157 11.646V13.5189C3.98133 13.5815 3.99331 13.6435 4.01682 13.7015C4.03973 13.7614 4.07466 13.8159 4.11935 13.8617C4.16521 13.9065 4.21973 13.9414 4.27956 13.9643C4.39612 14.0119 4.52669 14.0119 4.64324 13.9643C4.70308 13.9414 4.75759 13.9064 4.80345 13.8617C4.84815 13.8159 4.88308 13.7614 4.90599 13.7015C4.9295 13.6435 4.94147 13.5815 4.94123 13.5189V11.646C4.94103 11.5992 4.9595 11.5543 4.9925 11.5211C5.02571 11.4881 5.07064 11.4696 5.11747 11.4698H6.98712C7.04973 11.47 7.11177 11.4581 7.16976 11.4345C7.2296 11.4116 7.28411 11.3767 7.32997 11.332C7.37467 11.2861 7.4096 11.2316 7.43251 11.1718C7.48013 11.0552 7.48013 10.9247 7.43251 10.8081C7.42001 10.7778 7.40443 10.7488 7.38605 10.7216L7.32357 10.6591C7.23405 10.5703 7.11321 10.5203 6.98712 10.5197H5.11426C5.06744 10.5199 5.0225 10.5015 4.9893 10.4685C4.95629 10.4353 4.93783 10.3903 4.93803 10.3435V9.16436V9.08265C4.93811 9.04023 4.95345 8.9993 4.98129 8.9673C5.00896 8.93582 5.04709 8.91535 5.08863 8.90962C5.56421 8.84241 6.02574 8.69846 6.45522 8.48346C7.42246 8.00011 8.18257 7.18371 8.59564 6.18444C8.70742 5.91472 8.79222 5.6346 8.84877 5.34814C8.96244 4.7705 8.96244 4.17624 8.84877 3.59864ZM7.91474 5.16069V5.1671C7.52211 7.08182 5.65161 8.31572 3.73689 7.92308C1.82217 7.53045 0.588273 5.65995 0.980909 3.74523C1.37355 1.83052 3.24404 0.596614 5.15876 0.98925C6.81197 1.32826 7.99581 2.78741 7.98684 4.47499C7.98531 4.70533 7.96116 4.93504 7.91474 5.16069Z" fill="#FF45D6"/>
</svg>
