<svg width="12" height="12" viewBox="0 0 12 12" fill="none" xmlns="http://www.w3.org/2000/svg">
<path d="M11.9935 0.435547C11.988 0.392456 11.9785 0.350952 11.9628 0.312012C11.9623 0.311035 11.9623 0.309692 11.962 0.308472C11.962 0.308228 11.9618 0.307983 11.9615 0.307739C11.9442 0.266724 11.9205 0.229492 11.8938 0.194946C11.8872 0.186768 11.8807 0.178711 11.8738 0.17102C11.8452 0.138794 11.8142 0.109009 11.7782 0.0847168C11.7772 0.0839844 11.776 0.0837402 11.775 0.0830078C11.7402 0.0600586 11.7018 0.0427246 11.6615 0.0290527C11.6515 0.0255127 11.6417 0.0224609 11.6315 0.0197754C11.5892 0.00830078 11.5458 0 11.5 0H8C7.724 0 7.5 0.223999 7.5 0.5C7.5 0.776001 7.724 1 8 1H10.2927L7.30847 3.98425C6.5127 3.34778 5.53296 3 4.5 3C2.0188 3 0 5.0188 0 7.5C0 9.9812 2.0188 12 4.5 12C6.9812 12 9 9.9812 9 7.5C9 6.46753 8.65247 5.48804 8.0155 4.69153L11 1.70703V4C11 4.276 11.224 4.5 11.5 4.5C11.776 4.5 12 4.276 12 4V0.5C12 0.489502 11.9976 0.479492 11.9969 0.469238C11.9962 0.457764 11.995 0.446777 11.9935 0.435547ZM4.5 11C2.56995 11 1 9.43005 1 7.5C1 5.56995 2.56995 4 4.5 4C5.43445 4 6.31421 4.36377 6.97571 5.02295C7.63623 5.68579 8 6.56555 8 7.5C8 9.43005 6.43005 11 4.5 11Z" fill="#009EFD"/>
</svg>
