<svg width="19" height="19" viewBox="0 0 19 19" fill="none" xmlns="http://www.w3.org/2000/svg">
<path d="M18.8315 18.031L14.2142 13.4137C15.4528 11.9898 16.2027 10.1319 16.2027 8.10133C16.2027 3.63149 12.567 0 8.10133 0C3.63149 0 0 3.6357 0 8.10133C0 12.567 3.6357 16.2027 8.10133 16.2027C10.1319 16.2027 11.9898 15.4528 13.4137 14.2142L18.031 18.8315C18.1406 18.941 18.288 19 18.4313 19C18.5745 19 18.722 18.9452 18.8315 18.8315C19.0506 18.6124 19.0506 18.2501 18.8315 18.031ZM1.13326 8.10133C1.13326 4.2592 4.2592 1.13747 8.09712 1.13747C11.9392 1.13747 15.061 4.26341 15.061 8.10133C15.061 11.9392 11.9392 15.0694 8.09712 15.0694C4.2592 15.0694 1.13326 11.9435 1.13326 8.10133Z" fill="#767676"/>
</svg>
