<svg width="24" height="24" viewBox="0 0 24 24" fill="none" xmlns="http://www.w3.org/2000/svg">
<path d="M11.9973 23.9946C18.6232 23.9946 23.9946 18.6232 23.9946 11.9973C23.9946 5.37137 18.6232 0 11.9973 0C5.37137 0 0 5.37137 0 11.9973C0 18.6232 5.37137 23.9946 11.9973 23.9946Z" fill="#87DD6F"/>
<path d="M11.9903 21.0674C9.68768 21.0689 7.42023 20.5028 5.38861 19.4191C3.357 18.3354 1.62387 16.7676 0.342651 14.8544C0.981753 17.4658 2.4795 19.787 4.59561 21.4454C6.71172 23.1038 9.32354 24.0033 12.0121 23.9997C14.7006 23.9962 17.31 23.0896 19.4217 21.4256C21.5334 19.7615 23.0249 17.4364 23.657 14.8232C22.3776 16.7449 20.6429 18.3205 18.6075 19.4099C16.5721 20.4993 14.2989 21.0687 11.9903 21.0674Z" fill="#62C865"/>
<path d="M7.52329 12.1052C9.51014 12.1052 11.1208 10.4945 11.1208 8.50767C11.1208 6.52082 9.51014 4.91016 7.52329 4.91016C5.53644 4.91016 3.92578 6.52082 3.92578 8.50767C3.92578 10.4945 5.53644 12.1052 7.52329 12.1052Z" fill="white"/>
<path d="M8.65155 9.6549C9.28517 9.6549 9.79882 9.14125 9.79882 8.50763C9.79882 7.87401 9.28517 7.36035 8.65155 7.36035C8.01792 7.36035 7.50427 7.87401 7.50427 8.50763C7.50427 9.14125 8.01792 9.6549 8.65155 9.6549Z" fill="#002B3E"/>
<path d="M16.6466 12.1052C18.6334 12.1052 20.2441 10.4945 20.2441 8.50767C20.2441 6.52082 18.6334 4.91016 16.6466 4.91016C14.6597 4.91016 13.0491 6.52082 13.0491 8.50767C13.0491 10.4945 14.6597 12.1052 16.6466 12.1052Z" fill="white"/>
<path d="M15.3813 9.6549C16.0149 9.6549 16.5286 9.14125 16.5286 8.50763C16.5286 7.87401 16.0149 7.36035 15.3813 7.36035C14.7477 7.36035 14.234 7.87401 14.234 8.50763C14.234 9.14125 14.7477 9.6549 15.3813 9.6549Z" fill="#002B3E"/>
<path d="M4.77404 13.2329C5.57699 13.2329 6.2279 12.582 6.2279 11.7791C6.2279 10.9761 5.57699 10.3252 4.77404 10.3252C3.9711 10.3252 3.32019 10.9761 3.32019 11.7791C3.32019 12.582 3.9711 13.2329 4.77404 13.2329Z" fill="#FF8E80"/>
<path d="M19.2209 13.2329C20.0239 13.2329 20.6748 12.582 20.6748 11.7791C20.6748 10.9761 20.0239 10.3252 19.2209 10.3252C18.418 10.3252 17.7671 10.9761 17.7671 11.7791C17.7671 12.582 18.418 13.2329 19.2209 13.2329Z" fill="#FF8E80"/>
<path d="M10.7639 11.9971C10.7639 12.3242 10.8939 12.638 11.1252 12.8693C11.3565 13.1006 11.6703 13.2306 11.9974 13.2306C12.3246 13.2306 12.6383 13.1006 12.8696 12.8693C13.101 12.638 13.2309 12.3242 13.2309 11.9971H10.7639Z" fill="#002B3E"/>
</svg>
